HIERARCHY
ROOT Hips
{
    OFFSET 0.000000 0.000000 0.000000
    CHANNELS 6 Xposition Yposition Zposition Zrotation Xrotation Yrotation
    JOINT Spine
    {
        OFFSET -0.000000 7.246840 0.000000
        CHANNELS 3 Zrotation Xrotation Yrotation
        JOINT Spine1
        {
            OFFSET -0.000000 20.289354 0.000000
            CHANNELS 3 Zrotation Xrotation Yrotation
            JOINT Neck
            {
                OFFSET -0.000000 20.206032 1.836912
                CHANNELS 3 Zrotation Xrotation Yrotation
                JOINT Head
                {
                    OFFSET -0.000000 12.372654 -1.767522
                    CHANNELS 3 Zrotation Xrotation Yrotation
                    End Site
                    {
                        OFFSET -0.000000 22.094025 0.000000
                    }
                }
            }
            JOINT LeftShoulder
            {
                OFFSET 3.465871 17.201674 -0.568930
                CHANNELS 3 Zrotation Xrotation Yrotation
                JOINT LeftArm
                {
                    OFFSET 14.070313 0.000000 0.000000
                    CHANNELS 3 Zrotation Xrotation Yrotation
                    JOINT LeftForeArm
                    {
                        OFFSET 26.549477 0.000000 0.000000
                        CHANNELS 3 Zrotation Xrotation Yrotation
                        JOINT LeftHand
                        {
                            OFFSET 18.880413 0.000000 0.000000
                            CHANNELS 3 Zrotation Xrotation Yrotation
                            End Site
                            {
                                OFFSET 13.256415 0.000000 0.000000
                            }
                        }
                    }
                }
            }
            JOINT RightShoulder
            {
                OFFSET -3.526370 17.201674 -0.568930
                CHANNELS 3 Zrotation Xrotation Yrotation
                JOINT RightArm
                {
                    OFFSET -14.070313 0.000000 0.000000
                    CHANNELS 3 Zrotation Xrotation Yrotation
                    JOINT RightForeArm
                    {
                        OFFSET -26.549477 0.000000 0.000000
                        CHANNELS 3 Zrotation Xrotation Yrotation
                        JOINT RightHand
                        {
                            OFFSET -18.880413 0.000000 0.000000
                            CHANNELS 3 Zrotation Xrotation Yrotation
                            End Site
                            {
                                OFFSET -13.256415 0.000000 0.000000
                            }
                        }
                    }
                }
            }
        }
    }
    JOINT LeftUpLeg
    {
        OFFSET 8.837609 0.000000 0.000000
        CHANNELS 3 Zrotation Xrotation Yrotation
        JOINT LeftLeg
        {
            OFFSET -0.000000 -41.345005 0.000000
            CHANNELS 3 Zrotation Xrotation Yrotation
            JOINT LeftFoot
            {
                OFFSET -0.000000 -35.500874 0.000000
                CHANNELS 3 Zrotation Xrotation Yrotation
                JOINT LeftToeBase
                {
                    OFFSET -0.000000 -5.744446 13.256415
                    CHANNELS 3 Zrotation Xrotation Yrotation
                    End Site
                    {
                        OFFSET -0.000000 0.000000 3.535044
                    }
                }
            }
        }
    }
    JOINT RightUpLeg
    {
        OFFSET -8.837609 0.000000 0.000000
        CHANNELS 3 Zrotation Xrotation Yrotation
        JOINT RightLeg
        {
            OFFSET -0.000000 -41.345005 0.000000
            CHANNELS 3 Zrotation Xrotation Yrotation
            JOINT RightFoot
            {
                OFFSET -0.000000 -35.500874 0.000000
                CHANNELS 3 Zrotation Xrotation Yrotation
                JOINT RightToeBase
                {
                    OFFSET -0.000000 -5.744446 13.256415
                    CHANNELS 3 Zrotation Xrotation Yrotation
                    End Site
                    {
                        OFFSET -0.000000 0.000000 3.535044
                    }
                }
            }
        }
    }
}
MOTION
Frames:    4
Frame Time:    0.010000
6.817941    82.468224    -45.913746    3.099708    0.774257    -11.777602    -3.490557    -11.249820    0.966161    1.905995    4.630858    1.232990    -2.100196    31.126471    0.712532    2.506376    -9.467633    0.991634    18.398449    2.840606    8.451148    -32.583221    12.272654    -11.471648    2.794973    -1.190554    -7.152628    -3.467215    -0.563667    -14.856790    -14.866863    -0.464374    12.385065    26.867098    2.453893    5.619071    -3.927950    -7.711085    8.402753    -5.419098    -8.038153    13.019667    -2.309719    4.912704    3.821043    -0.355542    2.022631    -0.262146    3.023474    -2.778627    -1.014048    -2.196970    -5.569632    3.185244    -10.547069    0.882773    0.606058    5.842698    -2.229469    3.478643    3.773956    -2.926440    -8.613556    -1.076454    1.838946    1.893097    
6.834903    82.467865    -45.905392    3.093596    0.772146    -11.769004    -3.481106    -11.223365    0.951932    1.909094    4.621963    1.217066    -2.053295    31.135458    0.711354    2.481956    -9.532001    0.992979    18.413467    2.834641    8.445212    -32.566738    12.330460    -11.494228    2.777816    -1.200087    -7.157474    -3.418320    -0.581157    -14.837917    -14.854348    -0.452226    12.383136    26.788799    2.717093    5.582969    -3.904685    -7.819962    8.456172    -5.490094    -8.156818    13.060284    -2.317456    4.914014    3.815740    -0.356343    2.031708    -0.235459    3.056067    -2.776964    -1.017566    -2.172792    -5.556691    3.149928    -10.553701    0.880209    0.628319    5.839213    -2.202892    3.505017    3.782986    -2.928029    -8.715485    -1.098311    1.837800    1.931554    
6.853356    82.466934    -45.897598    3.088500    0.775694    -11.759805    -3.461482    -11.207013    0.941095    1.899969    4.616279    1.204235    -2.040639    31.153610    0.711789    2.513293    -9.607985    1.003621    18.436949    2.829345    8.425576    -32.556652    12.395405    -11.523786    2.770842    -1.239684    -7.132926    -3.418392    -0.621806    -14.837801    -14.844965    -0.459122    12.375167    26.740545    2.841400    5.570638    -3.897777    -7.801338    8.472917    -5.518864    -8.138158    12.993405    -2.316737    4.911968    3.784503    -0.361489    2.033379    -0.274578    3.091310    -2.800009    -0.982238    -2.208506    -5.530549    3.201132    -10.550766    0.866116    0.608391    5.819088    -2.167106    3.468944    3.803800    -2.932146    -8.669824    -1.121202    1.811330    1.972347    
6.869881    82.466873    -45.889141    3.072249    0.783485    -11.748577    -3.443257    -11.200146    0.923615    1.904999    4.618196    1.184554    -2.027815    31.149460    0.727677    2.548507    -9.648893    1.030856    18.470274    2.718219    8.346842    -32.578800    12.509591    -11.399260    2.768101    -1.210765    -7.130543    -3.383980    -0.590348    -15.078587    -14.839984    -0.444857    12.372620    26.687727    2.993664    5.557786    -4.010787    -7.694360    8.482614    -5.165639    -7.980184    12.937837    -2.307019    4.915682    3.770726    -0.388770    2.051900    -0.471638    3.145128    -2.815314    -0.778562    -2.197848    -5.529873    3.185672    -10.535940    0.857563    0.615874    5.792499    -2.146383    3.490973    3.830509    -2.957390    -8.708279    -1.087497    1.819066    1.912910    
